<svg xmlns="http://www.w3.org/2000/svg" xmlns:xlink="http://www.w3.org/1999/xlink" version="1.1" x="0px" y="0px" viewBox="0 0 100 100" enable-background="new 0 0 100 100" xml:space="preserve">
    <g>
        <path d="M30.359,27.01c-0.924-0.925-2.425-0.925-3.349,0L5.694,48.325c-0.925,0.925-0.925,2.424,0,3.349L27.01,72.99   c0.462,0.463,1.069,0.694,1.675,0.694c0.606,0,1.212-0.231,1.675-0.694c0.925-0.925,0.925-2.424,0-3.349L10.718,50l19.641-19.641   C31.284,29.434,31.284,27.934,30.359,27.01z" />
        <path d="M94.306,48.325L72.99,27.01c-0.924-0.925-2.425-0.925-3.349,0c-0.925,0.925-0.925,2.424,0,3.349L89.282,50L69.641,69.641   c-0.925,0.925-0.925,2.424,0,3.349c0.462,0.463,1.069,0.694,1.675,0.694c0.606,0,1.212-0.231,1.675-0.694l21.316-21.316   C95.231,50.75,95.231,49.25,94.306,48.325z" />
        <path d="M61.338,12.205c-1.251-0.374-2.573,0.335-2.949,1.588L37.074,84.846c-0.376,1.253,0.335,2.573,1.588,2.949   c0.227,0.068,0.456,0.1,0.681,0.1c1.019,0,1.96-0.662,2.268-1.688l21.316-71.053C63.302,13.901,62.591,12.581,61.338,12.205z" />
    </g>
</svg>