<svg id="Layer_1" data-name="Layer 1" xmlns="http://www.w3.org/2000/svg" viewBox="0 0 1291.2 522.99"><defs><style>.cls-1{font-size:294px;fill:none;stroke:#231f20;stroke-miterlimit:10;stroke-width:3px;font-family:Comfortaa-Light, Comfortaa;letter-spacing:0.12em;}.cls-2{fill:#231f20;}</style></defs><title>jamak-logo-word</title><text class="cls-1" transform="translate(362.94 452.3)">amak</text><path class="cls-2" d="M598,321.44a11.55,11.55,0,1,1,5-1.18A11.47,11.47,0,0,1,598,321.44Zm0-20a8.5,8.5,0,1,0,2.77.46A8.56,8.56,0,0,0,598,301.42Z" transform="translate(-262.69 -227.43)"/><path class="cls-2" d="M421,690.34a159.06,159.06,0,0,1-157.24-136.4l-1-7.24a1.52,1.52,0,0,1,.83-1.57l64.78-31.27,10.43-5.1A27.91,27.91,0,1,1,349.69,529l-11.32,5.54-50.44,24.34a135.69,135.69,0,0,0,261,17.38l11.15-31.09a27.87,27.87,0,0,1,17-47.56l73.74-214.51L623.1,273.6,617.48,290a27.87,27.87,0,0,1-16.68,48c-17.24,47-32.11,90-47.85,135.55-10.54,30.49-21.44,62-33.21,95.13l-.08.23a108.79,108.79,0,0,1-27.93,41.42,93.66,93.66,0,0,1-63.25,25,90.52,90.52,0,0,1-23.87-3.21,107.43,107.43,0,0,1-67.33-55.45,1.5,1.5,0,0,1,.68-2l18-8.8a1.48,1.48,0,0,1,1.15-.08,1.53,1.53,0,0,1,.86.76A84.07,84.07,0,0,0,410.66,610c22.88,6.25,47.38,0,65.55-16.57a85.74,85.74,0,0,0,21.91-32.54c11.71-32.93,22.58-64.38,33.09-94.79,15.74-45.53,30.62-88.54,47.88-135.66a27.89,27.89,0,0,1,17.66-48l5.49-16-29.79-10.21L473.93,543.59a45.7,45.7,0,0,1-58.17,28.46l-.11,0a45.85,45.85,0,0,1-20.18-14.24,1.52,1.52,0,0,1-.33-1.1,1.49,1.49,0,0,1,.55-1L411.2,543a1.46,1.46,0,0,1,1.1-.33,1.49,1.49,0,0,1,1,.54,22.61,22.61,0,0,0,38.86-7.12L557.66,228.44a1.5,1.5,0,0,1,1.91-.93l119.07,40.82a1.5,1.5,0,0,1,.93,1.91L598.83,505.08a27.92,27.92,0,0,1,7.24,29.32,28,28,0,0,1-24.39,18.76l-11,30.78A159,159,0,0,1,421,690.34Zm-155.15-143,.88,6.15a155.69,155.69,0,0,0,301.1,29.43l11.38-31.73a1.5,1.5,0,0,1,1.37-1,25,25,0,0,0,22.67-16.79,25,25,0,0,0-7.06-26.72,1.5,1.5,0,0,1-.5-1l0-.24a1.61,1.61,0,0,1,.08-.57l80.51-234.18L560,230.83,455,537.1A25.49,25.49,0,0,1,412,546.28L398.76,557a42.79,42.79,0,0,0,17.88,12.15l.1,0a42.92,42.92,0,0,0,13.93,2.34,42.88,42.88,0,0,0,40.42-28.94l99-288.77a1.53,1.53,0,0,1,.76-.86,1.5,1.5,0,0,1,1.14-.07l31.74,10.88.14.06.86.4a1.5,1.5,0,0,1,.79,1.85l-6.29,18.35a1.5,1.5,0,0,1-1.65,1l-.09,0a24.88,24.88,0,0,0-15.7,43.41,1.5,1.5,0,0,1,.46,1.68c-17.41,47.46-32.37,90.73-48.21,136.55-10.52,30.42-21.39,61.87-33.11,94.85a88.79,88.79,0,0,1-22.71,33.71C459.3,613,433.75,619.4,409.87,612.89a87.22,87.22,0,0,1-54-43.63l-15.27,7.49a104.53,104.53,0,0,0,64.76,52.54,87.87,87.87,0,0,0,23.08,3.1,90.7,90.7,0,0,0,61.23-24.22,105.84,105.84,0,0,0,27.14-40.26l.07-.21c11.76-33.08,22.66-64.59,33.2-95.07,15.83-45.79,30.78-89,48.15-136.41a1.61,1.61,0,0,1,.32-.59,1.55,1.55,0,0,1,1-.51,24.87,24.87,0,0,0,15.19-43.48,1.5,1.5,0,0,1-.5-1.67l6.43-18.76a1.53,1.53,0,0,1,.76-.86,1.51,1.51,0,0,1,1.14-.07l30.57,10.48a1.53,1.53,0,0,1,.86.76,1.51,1.51,0,0,1,.07,1.14L579.59,499.53a1.51,1.51,0,0,1-1.33,1,24.89,24.89,0,0,0-15.47,43.06,1.49,1.49,0,0,1,.47,1.67l-11.48,32a138.65,138.65,0,0,1-267-18.93,1.51,1.51,0,0,1,.82-1.64l51.47-24.85,12.17-6a1.5,1.5,0,0,1,1.72.27,24.84,24.84,0,0,0,27.89,2.29,24.84,24.84,0,1,0-37-18.92,1.49,1.49,0,0,1-1.2,1.64l-11,5.38Z" transform="translate(-262.69 -227.43)"/><path class="cls-2" d="M579.64,537.15a11.53,11.53,0,1,1,5.05-1.18A11.47,11.47,0,0,1,579.64,537.15Zm0-20a8.5,8.5,0,0,0-2.77,16.55,8.51,8.51,0,0,0,5.52-16.09A8.53,8.53,0,0,0,579.64,517.13Z" transform="translate(-262.69 -227.43)"/><path class="cls-2" d="M366.27,519.07a11.54,11.54,0,0,1-10.34-6.46,11.48,11.48,0,1,1,10.34,6.46Zm0-20a8.5,8.5,0,1,0,2.76.46A8.43,8.43,0,0,0,366.26,499.05Z" transform="translate(-262.69 -227.43)"/></svg>