<svg xmlns="http://www.w3.org/2000/svg" xmlns:xlink="http://www.w3.org/1999/xlink" version="1.1" x="0px" y="0px" viewBox="0 0 100 100" style="enable-background:new 0 0 100 100;" xml:space="preserve">
	<style type="text/css">
	.st0{display:none;}
	.st1{display:inline;}
</style>
	<g class="st0">
		<g class="st1">
			<path d="M92,11.5H8v47.6h84V11.5z M91.1,58.2H8.9V12.4h82.2V58.2z" />
			<path d="M91.8,5.7H8.2c-3.1,0-5.7,2.6-5.7,5.7v58.9c0,3.1,2.6,5.7,5.7,5.7h32.1c-1,4.2-2.7,8.1-5.1,11.6h-7.4    c-0.6,0-1.1,0.5-1.1,1.1v4.6c0,0.6,0.5,1.1,1.1,1.1h44.4c0.3,0,0.6-0.1,0.7-0.3s0.3-0.5,0.3-0.7l0-4.6c0-0.6-0.5-1.1-1.1-1.1    l-7.4,0c-2.4-3.6-4.1-7.5-5.1-11.6h32.1c3.1,0,5.7-2.6,5.7-5.7V11.4C97.5,8.2,94.9,5.7,91.8,5.7z M8.2,7.5h83.6    c2.2,0,3.9,1.8,3.9,3.9v52.1H4.3V11.4C4.3,9.2,6.1,7.5,8.2,7.5z M71.1,89.7l0,2.5H28.9v-2.5l6.9,0c0,0,0,0,0,0h28.5H71.1z     M63,88.7H37c2.6-3.9,4.4-8.2,5.5-12.7h15.1C58.6,80.5,60.4,84.8,63,88.7z M91.8,74.2H8.2c-2.2,0-3.9-1.8-3.9-3.9v-5.9h91.4v5.9    C95.7,72.4,93.9,74.2,91.8,74.2z" />
			<path d="M50,67.2c-1.3,0-2.3,1-2.3,2.3c0,1.3,1,2.3,2.3,2.3s2.3-1,2.3-2.3C52.3,68.3,51.3,67.2,50,67.2z M50,70.9    c-0.8,0-1.4-0.6-1.4-1.4s0.6-1.4,1.4-1.4c0.8,0,1.4,0.6,1.4,1.4S50.8,70.9,50,70.9z" />
		</g>
	</g>
	<g>
		<g>
			<path d="M17.1,66h65.9V28.6H17.1V66z M17.8,29.4h64.3v35.8H17.8V29.4z" />
			<path d="M87.8,69.4v-41c0-2.5-2.1-4.6-4.6-4.6H16.8c-2.5,0-4.6,2.1-4.6,4.6v41H2.5v0.8c0,3.4,2.8,6.1,6.3,6.1h82.5    c3.4,0,6.3-2.7,6.3-6.1v-0.8H87.8z M13.7,28.3c0-1.7,1.4-3,3-3h66.4c1.7,0,3,1.4,3,3v41H13.7V28.3z M59,70.9    c-0.1,0.6-0.6,1.1-1.2,1.1H42.2c-0.6,0-1.2-0.5-1.2-1.1H59z M91.2,74.7H8.8c-2.3,0-4.3-1.6-4.6-3.8h36.1c0.1,1,1,1.9,2,1.9h15.6    c1.1,0,1.9-0.8,2-1.9h36.1C95.5,73.1,93.6,74.7,91.2,74.7z" />
		</g>
	</g>
	<g class="st0">
		<g class="st1">
			<path d="M8.6,67.6h82.8v-47H8.6V67.6z M9.5,21.5h81v45.2h-81V21.5z" />
			<path d="M91.1,14.5H8.9c-3.5,0-6.4,2.9-6.4,6.4v46.4c0,1.7,0.7,3.3,1.9,4.5c1.2,1.2,2.8,1.9,4.5,1.9c0,0,0,0,0,0h34.5v5.8H30    c-0.5,0-1,0.4-1,1v4.1c0,0.5,0.4,1,1,1h40c0.3,0,0.5-0.1,0.7-0.3c0.2-0.2,0.3-0.4,0.3-0.7l0-4.1c0-0.5-0.4-1-1-1H56.7v-5.8h34.5    c3.5,0,6.4-2.8,6.4-6.3V20.9C97.5,17.4,94.6,14.5,91.1,14.5z M69,81.4l0,2.2H31v-2.2h13.3c0,0,0,0,0,0v0h11.4v0H69z M54.8,80.4    h-9.5c0,0,0,0,0,0v-6.7h9.5L54.8,80.4C54.8,80.4,54.8,80.4,54.8,80.4z M95.7,67.3c0,2.5-2,4.6-4.6,4.6H8.9c0,0,0,0,0,0    c-1.2,0-2.4-0.5-3.2-1.3c-0.9-0.9-1.3-2-1.3-3.2V20.9c0-2.5,2-4.6,4.6-4.6h82.3c2.5,0,4.6,2,4.6,4.5V67.3z" />
		</g>
	</g>
	<g class="st0">
		<g class="st1">
			<path d="M50,84.9c-2.3,0-4.2,1.9-4.2,4.2c0,2.3,1.9,4.2,4.2,4.2s4.2-1.9,4.2-4.2C54.2,86.8,52.3,84.9,50,84.9z M50,92.3    c-1.8,0-3.2-1.4-3.2-3.2s1.4-3.2,3.2-3.2s3.2,1.4,3.2,3.2S51.8,92.3,50,92.3z" />
			<path d="M44.5,9.5h11.1C55.8,9.5,56,9.3,56,9c0-0.3-0.2-0.5-0.5-0.5H44.5C44.2,8.5,44,8.7,44,9C44,9.3,44.2,9.5,44.5,9.5z" />
			<path d="M57.4,9.5c0.1,0,0.2-0.1,0.3-0.1c0.1-0.1,0.2-0.2,0.2-0.3c0-0.1-0.1-0.2-0.2-0.3c-0.2-0.2-0.5-0.2-0.7,0    C57,8.8,56.9,8.9,56.9,9c0,0.1,0,0.2,0.1,0.3C57.2,9.4,57.3,9.5,57.4,9.5z" />
			<path d="M30,83.3h40V12.9H30V83.3z M31,13.9H69v68.5H31V13.9z" />
			<path d="M65.7,2.5H34.3c-4.3,0-7.9,3.5-7.9,7.9v79.3c0,4.3,3.5,7.9,7.9,7.9h31.4c4.3,0,7.9-3.5,7.9-7.9V10.4    C73.5,6,70,2.5,65.7,2.5z M71.6,89.6c0,3.3-2.7,6-6,6H34.3c-3.3,0-6-2.7-6-6V10.4c0-3.3,2.7-6,6-6h31.4c3.3,0,6,2.7,6,6V89.6z" />
		</g>
	</g>
	<g class="st0">
		<g class="st1">
			<path d="M50,87.9c-1.6,0-2.9,1.3-2.9,2.9c0,1.6,1.3,2.9,2.9,2.9s2.9-1.3,2.9-2.9C52.9,89.3,51.6,87.9,50,87.9z M50,92.9    c-1.1,0-2-0.9-2-2c0-1.1,0.9-2,2-2s2,0.9,2,2C52,92,51.1,92.9,50,92.9z" />
			<path d="M43.6,8h11C54.8,8,55,7.8,55,7.5S54.8,7,54.6,7h-11c-0.3,0-0.5,0.2-0.5,0.5S43.3,8,43.6,8z" />
			<path d="M56.4,8c0.1,0,0.2,0,0.3-0.1c0,0,0.1-0.1,0.1-0.2c0-0.1,0-0.1,0-0.2c0-0.1,0-0.2-0.1-0.3c-0.2-0.2-0.5-0.2-0.7,0    C56,7.2,56,7.3,56,7.3c0,0.1,0,0.1,0,0.2c0,0.1,0.1,0.2,0.2,0.3C56.2,7.9,56.3,8,56.4,8z" />
			<path d="M74.9,2.5H25.1c-4.3,0-7.8,3.5-7.8,7.8v79.4c0,4.3,3.5,7.8,7.8,7.8h49.8c4.3,0,7.8-3.5,7.8-7.8V10.3    C82.7,6,79.2,2.5,74.9,2.5z M80.8,89.7c0,3.3-2.6,5.9-5.9,5.9H25.1c-3.2,0-5.9-2.6-5.9-5.9V10.3c0-3.3,2.6-5.9,5.9-5.9h49.8    c3.3,0,5.9,2.6,5.9,5.9V89.7z" />
			<path d="M21.3,86.4h57.4V10.1H21.3V86.4z M22.2,11.1h55.6v74.4H22.2V11.1z" />
		</g>
	</g>
	<g class="st0">
		<g class="st1">
			<path d="M82,65.5c1,0,1.8-0.8,1.8-1.8S83,61.9,82,61.9s-1.8,0.8-1.8,1.8S81.1,65.5,82,65.5z M82,62.8c0.5,0,0.8,0.4,0.8,0.8    c0,0.5-0.4,0.8-0.8,0.8c-0.5,0-0.8-0.4-0.8-0.8C81.2,63.2,81.6,62.8,82,62.8z" />
			<path d="M82,69c-1,0-1.8,0.8-1.8,1.8c0,1,0.8,1.8,1.8,1.8s1.8-0.8,1.8-1.8C83.8,69.8,83,69,82,69z M82,71.6    c-0.5,0-0.8-0.4-0.8-0.8c0-0.5,0.4-0.8,0.8-0.8c0.5,0,0.8,0.4,0.8,0.8C82.9,71.2,82.5,71.6,82,71.6z" />
			<path d="M50,8.4c0.9,0,1.6-0.7,1.6-1.6c0-0.9-0.7-1.6-1.6-1.6S48.4,6,48.4,6.8C48.4,7.7,49.1,8.4,50,8.4z M50,6.2    c0.3,0,0.6,0.3,0.6,0.6S50.3,7.5,50,7.5s-0.6-0.3-0.6-0.6S49.7,6.2,50,6.2z" />
			<path d="M18.3,60.8c-2.3,0-4.1,1.8-4.1,4.1s1.8,4.1,4.1,4.1s4.1-1.8,4.1-4.1S20.5,60.8,18.3,60.8z M18.3,68    c-1.7,0-3.2-1.4-3.2-3.2c0-1.7,1.4-3.2,3.2-3.2s3.2,1.4,3.2,3.2C21.4,66.6,20,68,18.3,68z" />
			<path d="M53,7.3c0.1,0,0.1,0,0.2,0c0.1,0,0.2,0,0.3-0.1c0.1-0.1,0.2-0.2,0.2-0.3c0-0.1-0.1-0.2-0.2-0.3c-0.2-0.2-0.5-0.2-0.7,0    c-0.1,0.1-0.1,0.2-0.1,0.3c0,0.1,0,0.2,0.1,0.3C52.9,7.2,52.9,7.2,53,7.3z" />
			<path d="M79.1,81.6c-0.1-0.1-0.2-0.2-0.3-0.2c-0.4-0.2-0.8-0.1-1,0.2c-0.1,0.1-0.2,0.2-0.2,0.3c-0.1,0.1-0.1,0.2-0.1,0.4    c0,0.2,0.1,0.5,0.3,0.7c0.1,0.1,0.2,0.2,0.3,0.2c0.1,0,0.2,0.1,0.4,0.1c0.2,0,0.5-0.1,0.7-0.3c0.2-0.2,0.3-0.4,0.3-0.7    c0-0.1,0-0.2-0.1-0.4C79.3,81.8,79.2,81.7,79.1,81.6z" />
			<path d="M79.1,85.9c-0.1-0.1-0.2-0.2-0.3-0.2c-0.4-0.1-0.8-0.1-1,0.2c-0.1,0.1-0.2,0.2-0.2,0.3c-0.1,0.1-0.1,0.2-0.1,0.4    c0,0.2,0.1,0.5,0.3,0.7c0.1,0.1,0.2,0.2,0.3,0.2c0.1,0.1,0.2,0.1,0.4,0.1c0.2,0,0.5-0.1,0.7-0.3c0.2-0.2,0.3-0.4,0.3-0.7    c0-0.1,0-0.2-0.1-0.4C79.3,86.1,79.2,86,79.1,85.9z" />
			<path d="M15.7,23.8c0.1,0.1,0.2,0.1,0.3,0.1c0.1,0,0.2,0,0.3-0.1c0.1-0.1,0.2-0.2,0.2-0.3c0-0.1-0.1-0.2-0.2-0.3    c-0.2-0.2-0.5-0.2-0.7,0c-0.1,0.1-0.2,0.2-0.2,0.3c0,0.1,0,0.1,0,0.2C15.6,23.7,15.7,23.8,15.7,23.8z" />
			<path d="M16,25.6c0.1,0,0.2,0,0.3-0.1c0.1-0.1,0.2-0.2,0.2-0.3c0-0.1-0.1-0.2-0.2-0.3c-0.2-0.2-0.5-0.2-0.7,0    c-0.1,0.1-0.2,0.2-0.2,0.3c0,0.1,0.1,0.2,0.2,0.3C15.8,25.6,15.9,25.6,16,25.6z" />
			<path d="M15.7,27.2c0.1,0.1,0.2,0.1,0.3,0.1c0.1,0,0.2,0,0.3-0.1c0.1-0.1,0.2-0.2,0.2-0.3c0-0.1-0.1-0.2-0.2-0.3    c-0.2-0.2-0.5-0.2-0.7,0c-0.1,0.1-0.2,0.2-0.2,0.3c0,0.1,0,0.1,0,0.2C15.6,27.1,15.7,27.2,15.7,27.2z" />
			<path d="M83,2.5H17c-4.3,0-7.8,3.5-7.8,7.8v79.5c0,4.3,3.5,7.8,7.8,7.8h66c4.3,0,7.8-3.5,7.8-7.8V10.3C90.8,6,87.3,2.5,83,2.5z     M71.5,95.6h-43C27,94.9,26,93.4,26,91.7V53.1H74v38.6C74,93.4,73,94.9,71.5,95.6z M18.2,51.2v-2.4h63.6v2.4H18.2z M11.1,48.8h6.2    v2.4h-6.2V48.8z M82.7,48.8h6.2v2.4h-6.2V48.8z M17,4.4h66c3.2,0,5.9,2.6,5.9,5.9v36.7H11.1V10.3C11.1,7,13.7,4.4,17,4.4z     M11.1,89.7V53.1h14v38.6c0,1.6,0.7,3,1.8,3.9H17C13.7,95.6,11.1,93,11.1,89.7z M83,95.6h-9.9c1.1-1,1.8-2.4,1.8-3.9V53.1h14v36.7    C88.9,93,86.3,95.6,83,95.6z" />
			<path d="M78.6,9.2H21.4v36.2h57.2V9.2z M77.6,44.5H22.4V10.2h55.3V44.5z" />
			<path d="M27.7,89.8h44.6V54.6H27.7V89.8z M28.6,55.5h42.7v33.3H28.6V55.5z" />
			<path d="M17.4,25.5c0.1,0.1,0.2,0.1,0.3,0.1c0.1,0,0.2,0,0.3-0.1c0.1-0.1,0.2-0.2,0.2-0.3c0-0.1-0.1-0.2-0.2-0.3    c-0.2-0.2-0.5-0.2-0.7,0c-0.1,0.1-0.2,0.2-0.2,0.3c0,0.1,0,0.1,0,0.2C17.3,25.4,17.4,25.5,17.4,25.5z" />
			<path d="M14.1,25.6c0.1,0,0.1,0,0.2,0c0.1,0,0.2,0,0.3-0.1c0.1-0.1,0.2-0.2,0.2-0.3c0-0.1-0.1-0.2-0.2-0.3c-0.2-0.2-0.5-0.2-0.7,0    c-0.1,0.1-0.2,0.2-0.2,0.3c0,0.1,0.1,0.2,0.2,0.3C14,25.6,14.1,25.6,14.1,25.6z" />
			<path d="M83.8,23.9c0.1,0,0.1,0,0.2,0c0.1,0,0.2,0,0.3-0.1c0.1-0.1,0.1-0.2,0.1-0.3c0-0.1,0-0.2-0.1-0.3C84.2,23,84,23,83.8,23    c-0.1,0-0.1,0.1-0.2,0.1c-0.1,0.1-0.2,0.2-0.2,0.3c0,0.1,0.1,0.2,0.2,0.3C83.7,23.8,83.7,23.9,83.8,23.9z" />
			<path d="M84,25.6c0.1,0,0.2,0,0.3-0.1c0.1-0.1,0.1-0.2,0.1-0.3c0-0.1,0-0.2-0.1-0.3c-0.2-0.2-0.5-0.2-0.7,0    c-0.1,0.1-0.2,0.2-0.2,0.3c0,0.1,0.1,0.2,0.2,0.3C83.7,25.6,83.9,25.6,84,25.6z" />
			<path d="M83.8,27.3c0.1,0,0.1,0,0.2,0c0.1,0,0.2,0,0.3-0.1c0.1-0.1,0.1-0.2,0.1-0.3c0-0.1,0-0.2-0.1-0.3c-0.2-0.2-0.5-0.2-0.7,0    c-0.1,0.1-0.2,0.2-0.2,0.3c0,0.1,0.1,0.2,0.2,0.3C83.7,27.3,83.7,27.3,83.8,27.3z" />
			<path d="M85.7,25.6c0.1,0,0.2,0,0.3-0.1c0.1-0.1,0.2-0.2,0.2-0.3c0-0.1-0.1-0.2-0.2-0.3c-0.2-0.2-0.5-0.2-0.7,0    c-0.1,0.1-0.1,0.2-0.1,0.3c0,0.1,0.1,0.2,0.1,0.3C85.4,25.6,85.6,25.6,85.7,25.6z" />
			<path d="M82.1,25.6c0.1,0,0.1,0,0.2,0c0.1,0,0.2,0,0.3-0.1c0.1-0.1,0.1-0.2,0.1-0.3c0-0.1,0-0.2-0.1-0.3c-0.2-0.2-0.5-0.2-0.7,0    c-0.1,0.1-0.2,0.2-0.2,0.3c0,0.1,0.1,0.2,0.2,0.3C82,25.6,82,25.6,82.1,25.6z" />
			<path d="M85.6,65.4c-1,0-1.8,0.8-1.8,1.8c0,1,0.8,1.8,1.8,1.8c1,0,1.8-0.8,1.8-1.8C87.4,66.2,86.6,65.4,85.6,65.4z M85.6,68.1    c-0.5,0-0.8-0.4-0.8-0.8c0-0.5,0.4-0.8,0.8-0.8s0.8,0.4,0.8,0.8C86.5,67.7,86.1,68.1,85.6,68.1z" />
			<path d="M78.5,65.4c-1,0-1.8,0.8-1.8,1.8c0,1,0.8,1.8,1.8,1.8c1,0,1.8-0.8,1.8-1.8C80.3,66.2,79.5,65.4,78.5,65.4z M78.5,68.1    c-0.5,0-0.8-0.4-0.8-0.8c0-0.5,0.4-0.8,0.8-0.8c0.5,0,0.8,0.4,0.8,0.8C79.3,67.7,79,68.1,78.5,68.1z" />
			<path d="M51.4,91.2h-2.8c-0.9,0-1.6,0.7-1.6,1.6s0.7,1.6,1.6,1.6h2.8c0.9,0,1.6-0.7,1.6-1.6S52.3,91.2,51.4,91.2z M51.4,93.5h-2.8    c-0.4,0-0.7-0.3-0.7-0.7s0.3-0.7,0.7-0.7h2.8c0.4,0,0.7,0.3,0.7,0.7S51.8,93.5,51.4,93.5z" />
			<path d="M21.6,76.8h-2.1v-2.1c0-0.3-0.2-0.5-0.5-0.5h-1.6c-0.3,0-0.5,0.2-0.5,0.5v2.1h-2.1c-0.3,0-0.5,0.2-0.5,0.5v1.6    c0,0.3,0.2,0.5,0.5,0.5H17v2.1c0,0.3,0.2,0.5,0.5,0.5H19c0.3,0,0.5-0.2,0.5-0.5v-2.1h2.1c0.3,0,0.5-0.2,0.5-0.5v-1.6    C22.1,77,21.8,76.8,21.6,76.8z M21.1,78.4H19c-0.3,0-0.5,0.2-0.5,0.5v2.1h-0.6v-2.1c0-0.3-0.2-0.5-0.5-0.5h-2.1v-0.6h2.1    c0.3,0,0.5-0.2,0.5-0.5v-2.1h0.6v2.1c0,0.3,0.2,0.5,0.5,0.5h2.1V78.4z" />
		</g>
	</g>
	<g class="st0">
		<g class="st1">
			<path d="M10,44.7c2,0,3.6-1.6,3.6-3.6S12,37.4,10,37.4S6.4,39,6.4,41S8,44.7,10,44.7z M10,38.2c1.5,0,2.8,1.3,2.8,2.8    c0,1.5-1.3,2.8-2.8,2.8S7.2,42.6,7.2,41C7.2,39.5,8.5,38.2,10,38.2z" />
			<path d="M90.2,48.9c-2,0-3.6,1.6-3.6,3.6s1.6,3.6,3.6,3.6c2,0,3.6-1.6,3.6-3.6S92.2,48.9,90.2,48.9z M90.2,55.3    c-1.5,0-2.8-1.3-2.8-2.8s1.3-2.8,2.8-2.8c1.5,0,2.8,1.3,2.8,2.8S91.7,55.3,90.2,55.3z" />
			<path d="M78.8,66.4V33.6H21.2v32.8H78.8z M22,34.5H78v31.1H22V34.5z" />
			<path d="M88.9,29.6H11.1c-4.7,0-8.6,3.8-8.6,8.6v23.6c0,4.7,3.8,8.6,8.6,8.6h77.8c4.7,0,8.6-3.8,8.6-8.6V38.2    C97.5,33.5,93.7,29.6,88.9,29.6z M82.6,31.3v37.4H17.4V31.3H82.6z M4.2,61.8V38.2c0-3.8,3.1-6.9,6.9-6.9h4.6v37.4h-4.6    C7.3,68.7,4.2,65.6,4.2,61.8z M95.8,61.8c0,3.8-3.1,6.9-6.9,6.9h-4.6V31.3h4.6c3.8,0,6.9,3.1,6.9,6.9V61.8z" />
			<path d="M8.5,49.6c0,0.8,0.7,1.5,1.5,1.5c0.8,0,1.5-0.7,1.5-1.5s-0.7-1.5-1.5-1.5C9.2,48.1,8.5,48.8,8.5,49.6z M10.7,49.6    c0,0.4-0.3,0.7-0.7,0.7c-0.4,0-0.7-0.3-0.7-0.7c0-0.4,0.3-0.7,0.7-0.7C10.4,49,10.7,49.3,10.7,49.6z" />
			<path d="M10,53.9c-0.8,0-1.5,0.7-1.5,1.5s0.7,1.5,1.5,1.5c0.8,0,1.5-0.7,1.5-1.5S10.8,53.9,10,53.9z M10,56    c-0.4,0-0.7-0.3-0.7-0.7c0-0.4,0.3-0.7,0.7-0.7c0.4,0,0.7,0.3,0.7,0.7C10.7,55.8,10.4,56,10,56z" />
			<path d="M12.9,51c-0.8,0-1.5,0.7-1.5,1.5s0.7,1.5,1.5,1.5c0.8,0,1.5-0.7,1.5-1.5S13.7,51,12.9,51z M12.9,53.2    c-0.4,0-0.7-0.3-0.7-0.7s0.3-0.7,0.7-0.7c0.4,0,0.7,0.3,0.7,0.7S13.3,53.2,12.9,53.2z" />
			<path d="M7.1,51c-0.8,0-1.5,0.7-1.5,1.5S6.3,54,7.1,54s1.5-0.7,1.5-1.5S7.9,51,7.1,51z M7.1,53.2c-0.4,0-0.7-0.3-0.7-0.7    s0.3-0.7,0.7-0.7c0.4,0,0.7,0.3,0.7,0.7S7.5,53.2,7.1,53.2z" />
			<path d="M90.2,39.7c0.8,0,1.5-0.7,1.5-1.5s-0.7-1.5-1.5-1.5s-1.5,0.7-1.5,1.5S89.4,39.7,90.2,39.7z M90.2,37.5    c0.4,0,0.7,0.3,0.7,0.7s-0.3,0.7-0.7,0.7c-0.4,0-0.7-0.3-0.7-0.7S89.8,37.5,90.2,37.5z" />
			<path d="M88.7,43.9c0,0.8,0.7,1.5,1.5,1.5s1.5-0.7,1.5-1.5c0-0.8-0.7-1.5-1.5-1.5S88.7,43.1,88.7,43.9z M90.8,43.9    c0,0.4-0.3,0.7-0.7,0.7c-0.4,0-0.7-0.3-0.7-0.7c0-0.4,0.3-0.7,0.7-0.7C90.5,43.3,90.8,43.6,90.8,43.9z" />
			<path d="M91.6,41c0,0.8,0.7,1.5,1.5,1.5s1.5-0.7,1.5-1.5s-0.7-1.5-1.5-1.5S91.6,40.2,91.6,41z M93.7,41c0,0.4-0.3,0.7-0.7,0.7    c-0.4,0-0.7-0.3-0.7-0.7c0-0.4,0.3-0.7,0.7-0.7C93.4,40.4,93.7,40.7,93.7,41z" />
			<path d="M88.8,41c0-0.8-0.7-1.5-1.5-1.5s-1.5,0.7-1.5,1.5s0.7,1.5,1.5,1.5S88.8,41.9,88.8,41z M86.6,41c0-0.4,0.3-0.7,0.7-0.7    s0.7,0.3,0.7,0.7c0,0.4-0.3,0.7-0.7,0.7S86.6,41.4,86.6,41z" />
		</g>
	</g>
	<g class="st0">
		<g class="st1">
			<path d="M25.4,38.7c3.4,0,6.1-2.7,6.1-6.1s-2.7-6.1-6.1-6.1s-6.1,2.7-6.1,6.1S22.1,38.7,25.4,38.7z M25.4,27.7    c2.7,0,4.9,2.2,4.9,4.9s-2.2,4.9-4.9,4.9s-4.9-2.2-4.9-4.9S22.7,27.7,25.4,27.7z" />
			<path d="M74.8,46.1c-3.4,0-6.1,2.7-6.1,6.1c0,3.4,2.7,6.1,6.1,6.1c3.4,0,6.1-2.7,6.1-6.1C80.9,48.8,78.2,46.1,74.8,46.1z     M74.8,57.1c-2.7,0-4.9-2.2-4.9-4.9c0-2.7,2.2-4.9,4.9-4.9c2.7,0,4.9,2.2,4.9,4.9C79.7,54.9,77.5,57.1,74.8,57.1z" />
			<path d="M25.4,44.8c-1.3,0-2.4,1.1-2.4,2.4c0,1.3,1.1,2.4,2.4,2.4s2.4-1.1,2.4-2.4C27.9,45.9,26.8,44.8,25.4,44.8z M25.4,48.5    c-0.7,0-1.2-0.6-1.2-1.2s0.6-1.2,1.2-1.2c0.7,0,1.2,0.6,1.2,1.2S26.1,48.5,25.4,48.5z" />
			<path d="M25.4,54.7c-1.3,0-2.4,1.1-2.4,2.4c0,1.3,1.1,2.4,2.4,2.4s2.4-1.1,2.4-2.4C27.9,55.8,26.8,54.7,25.4,54.7z M25.4,58.3    c-0.7,0-1.2-0.6-1.2-1.2c0-0.7,0.6-1.2,1.2-1.2c0.7,0,1.2,0.6,1.2,1.2C26.7,57.8,26.1,58.3,25.4,58.3z" />
			<path d="M27.9,52.2c0,1.3,1.1,2.4,2.4,2.4c1.3,0,2.4-1.1,2.4-2.4c0-1.3-1.1-2.4-2.4-2.4C29,49.7,27.9,50.8,27.9,52.2z M31.6,52.2    c0,0.7-0.6,1.2-1.2,1.2s-1.2-0.6-1.2-1.2c0-0.7,0.6-1.2,1.2-1.2S31.6,51.5,31.6,52.2z" />
			<path d="M20.5,54.6c1.3,0,2.4-1.1,2.4-2.4c0-1.3-1.1-2.4-2.4-2.4c-1.3,0-2.4,1.1-2.4,2.4C18.1,53.5,19.2,54.6,20.5,54.6z     M20.5,50.9c0.7,0,1.2,0.6,1.2,1.2c0,0.7-0.6,1.2-1.2,1.2s-1.2-0.6-1.2-1.2C19.3,51.5,19.8,50.9,20.5,50.9z" />
			<path d="M74.8,30.1c1.3,0,2.4-1.1,2.4-2.4c0-1.3-1.1-2.4-2.4-2.4c-1.3,0-2.4,1.1-2.4,2.4C72.4,29,73.5,30.1,74.8,30.1z M74.8,26.4    c0.7,0,1.2,0.6,1.2,1.2s-0.6,1.2-1.2,1.2c-0.7,0-1.2-0.6-1.2-1.2S74.1,26.4,74.8,26.4z" />
			<path d="M74.8,39.9c1.3,0,2.4-1.1,2.4-2.4c0-1.3-1.1-2.4-2.4-2.4c-1.3,0-2.4,1.1-2.4,2.4C72.4,38.9,73.5,39.9,74.8,39.9z     M74.8,36.3c0.7,0,1.2,0.6,1.2,1.2c0,0.7-0.6,1.2-1.2,1.2c-0.7,0-1.2-0.6-1.2-1.2C73.6,36.8,74.1,36.3,74.8,36.3z" />
			<path d="M79.8,35c1.3,0,2.4-1.1,2.4-2.4c0-1.3-1.1-2.4-2.4-2.4c-1.3,0-2.4,1.1-2.4,2.4C77.3,33.9,78.4,35,79.8,35z M79.8,31.3    c0.7,0,1.2,0.6,1.2,1.2c0,0.7-0.6,1.2-1.2,1.2s-1.2-0.6-1.2-1.2C78.5,31.9,79.1,31.3,79.8,31.3z" />
			<path d="M69.9,35c1.3,0,2.4-1.1,2.4-2.4c0-1.3-1.1-2.4-2.4-2.4c-1.3,0-2.4,1.1-2.4,2.4C67.4,33.9,68.5,35,69.9,35z M69.9,31.3    c0.7,0,1.2,0.6,1.2,1.2c0,0.7-0.6,1.2-1.2,1.2c-0.7,0-1.2-0.6-1.2-1.2C68.6,31.9,69.2,31.3,69.9,31.3z" />
			<path d="M87.1,25.3l-0.2,0.1c-1.1-6.9-7.1-12.1-14.2-12.1h-9.4H36.6h-9.4c-7.2,0-13.1,5.2-14.2,12.1l-0.1,0    c-0.8,1.9-19.8,46-4.4,57.9c3.3,2.6,6.4,3.5,9.2,3.5c5.2,0,8.9-3.1,10.1-4.2h8.9h26.7h8.9c1.2,1.1,4.9,4.2,10.1,4.2    c2.7,0,5.9-0.9,9.2-3.5C106.9,71.3,87.9,27.2,87.1,25.3z M84.7,27.7V68c0,6.6-5.4,12-12,12h-8.8V15.7h8.8    C79.3,15.7,84.7,21.1,84.7,27.7z M37.2,15.7h25.5v64.4H37.2V15.7z M15.2,27.7c0-6.6,5.4-12,12-12H36v64.4h-8.8    c-6.6,0-12-5.4-12-12V27.7z M10,81.3c-10.9-8.4-1.8-36.9,2.9-49.3v36c0,7,5,12.8,11.5,14.1C21.6,84.1,16.3,86.2,10,81.3z M90,81.3    c-6.3,4.9-11.6,2.7-14.4,0.8C82.2,80.8,87.1,75,87.1,68V32C91.7,44.2,100.9,72.9,90,81.3z" />
		</g>
	</g>
</svg>