<svg xmlns="http://www.w3.org/2000/svg" xmlns:xlink="http://www.w3.org/1999/xlink" version="1.1" x="0px" y="0px" viewBox="0 0 80 80" style="enable-background:new 0 0 80 80;" xml:space="preserve">
    <g>
        <path d="M59.7988,20.2012C54.5107,14.9126,47.4795,12,40,12s-14.5107,2.9126-19.7988,8.2012C14.9131,25.4893,12,32.521,12,40   s2.9131,14.5107,8.2012,19.7988C25.4893,65.0874,32.5205,68,40,68s14.5107-2.9126,19.7988-8.2012C65.0869,54.5107,68,47.479,68,40   S65.0869,25.4893,59.7988,20.2012z M58.3848,58.3848C53.4736,63.2954,46.9453,66,40,66c-2.6973,0-5.3296-0.4128-7.8306-1.1992   l17.123-17.1228c0.6079,0.3591,1.2964,0.5647,2.021,0.5647c1.0693,0,2.0732-0.4165,2.8281-1.1719   c0.7559-0.7554,1.1719-1.7598,1.1719-2.8281s-0.416-2.0732-1.1719-2.8286c-0.7549-0.7554-1.7598-1.1714-2.8281-1.1714   s-2.0723,0.416-2.8281,1.1714s-1.1719,1.7603-1.1719,2.8286c0,0.7249,0.2056,1.4131,0.5645,2.0212L30.0908,64.0515   c-3.1318-1.2903-6.0083-3.1995-8.4756-5.6667C16.7051,53.4741,14,46.9448,14,40s2.7051-13.4741,7.6152-18.3848   C26.5264,16.7046,33.0547,14,40,14c2.6973,0,5.3296,0.4128,7.8306,1.1992L30.7075,32.322   c-0.6079-0.3591-1.2964-0.5647-2.021-0.5647c-1.0693,0-2.0732,0.4165-2.8281,1.1719c-0.7559,0.7554-1.1719,1.7598-1.1719,2.8281   s0.416,2.0732,1.1719,2.8286c0.7549,0.7554,1.7598,1.1714,2.8281,1.1714s2.0723-0.416,2.8281-1.1714s1.1719-1.7603,1.1719-2.8286   c0-0.7249-0.2056-1.4131-0.5645-2.0212l17.7871-17.7876c3.1318,1.2903,6.0083,3.1995,8.4756,5.6667   C63.2949,26.5259,66,33.0552,66,40S63.2949,53.4741,58.3848,58.3848z M49.3135,44.2427c0-0.5342,0.208-1.0366,0.5859-1.4146   c0.7559-0.7549,2.0723-0.7549,2.8281,0c0.3779,0.3779,0.5859,0.8804,0.5859,1.4146s-0.208,1.0361-0.5859,1.4141   c-0.7559,0.7559-2.0723,0.7559-2.8281,0C49.5215,45.2788,49.3135,44.7769,49.3135,44.2427z M30.6865,35.7573   c0,0.5342-0.208,1.0366-0.5859,1.4146c-0.7559,0.7549-2.0723,0.7549-2.8281,0c-0.3779-0.3779-0.5859-0.8804-0.5859-1.4146   s0.208-1.0361,0.5859-1.4141s0.8799-0.5859,1.4141-0.5859s1.0361,0.208,1.4141,0.5859S30.6865,35.2231,30.6865,35.7573z" />
        <path d="M49.1924,26.8076c-1.0684,0-2.0732,0.4165-2.8281,1.1719c-0.7559,0.7554-1.1719,1.7598-1.1719,2.8281   c0,0.7249,0.2056,1.4131,0.5645,2.0212L32.8286,45.7571c-0.6079-0.3589-1.2964-0.5647-2.021-0.5647   c-1.0684,0-2.0732,0.4165-2.8281,1.1719c-0.7559,0.7554-1.1719,1.7598-1.1719,2.8281s0.416,2.0728,1.1719,2.8281   c0.7549,0.7554,1.7598,1.1719,2.8281,1.1719s2.0732-0.4165,2.8281-1.1719c0.7559-0.7554,1.1719-1.7598,1.1719-2.8281   c0-0.7249-0.2056-1.4131-0.5645-2.0212l12.9282-12.9282c0.6079,0.3589,1.2964,0.5647,2.021,0.5647   c1.0684,0,2.0732-0.4165,2.8281-1.1719c0.7559-0.7554,1.1719-1.7598,1.1719-2.8281s-0.416-2.0728-1.1719-2.8281   C51.2656,27.2241,50.2607,26.8076,49.1924,26.8076z M32.2217,50.6064c-0.7559,0.7559-2.0723,0.7559-2.8281,0   c-0.3779-0.3779-0.5859-0.8799-0.5859-1.4141s0.208-1.0361,0.5859-1.4141s0.8799-0.5859,1.4141-0.5859s1.0361,0.208,1.4141,0.5859   s0.5859,0.8799,0.5859,1.4141S32.5996,50.2285,32.2217,50.6064z M50.6064,32.2217c-0.7559,0.7559-2.0723,0.7559-2.8281,0   c-0.3779-0.3779-0.5859-0.8799-0.5859-1.4141s0.208-1.0361,0.5859-1.4141s0.8799-0.5859,1.4141-0.5859s1.0361,0.208,1.4141,0.5859   s0.5859,0.8799,0.5859,1.4141S50.9844,31.8438,50.6064,32.2217z" />
    </g>
</svg>